<svg width="26" height="26" viewBox="0 0 26 26" fill="none" xmlns="http://www.w3.org/2000/svg">
<g id="Frame">
<g id="SVGRepo_iconCarrier">
<path id="Vector" d="M23.3164 13.6982C23.7306 14.4845 23.9858 15.3447 24.0674 16.2297C24.149 17.1146 24.0554 18.007 23.792 18.8558C23.5285 19.7045 23.1004 20.4931 22.5321 21.1763C21.9637 21.8595 21.2663 22.424 20.4797 22.8376L18.3072 23.9823L17.773 24.2632C17.2822 24.5215 16.7386 24.6635 16.1842 24.6784C15.6298 24.6932 15.0794 24.5805 14.5755 24.3488L6.09108 20.724L6.89002 18.3538L11.9358 19.3285L9.3227 14.3631L5.11583 6.36954L7.16521 5.29136L11.3721 13.2872L12.3844 12.7548L10.5298 9.22827L12.5781 8.1507L14.4326 11.6772L15.4449 11.1448L14.0129 8.42298L16.0623 7.3448L17.4944 10.0666L18.5072 9.52951L17.5244 7.65639L19.5732 6.58115L20.556 8.45422L23.3159 13.7L23.3164 13.6982ZM3.72087 7.44829C3.29513 7.02218 3.00517 6.47949 2.88759 5.88873C2.77001 5.29797 2.83009 4.68562 3.06023 4.12897C3.29037 3.57232 3.68027 3.09633 4.1807 2.76108C4.68113 2.42583 5.26966 2.24635 5.87201 2.24529C6.36013 2.24584 6.841 2.36346 7.27426 2.58829C7.70753 2.81312 8.08054 3.13859 8.362 3.5374C8.64346 3.9362 8.82515 4.3967 8.89183 4.88024C8.95851 5.36379 8.90823 5.85628 8.74521 6.31638L9.28289 7.33266C9.64253 6.72974 9.83612 6.04233 9.84395 5.34033C9.85178 4.63833 9.67359 3.94677 9.32748 3.33598C8.98138 2.72518 8.4797 2.21692 7.87347 1.86288C7.26724 1.50883 6.57806 1.32163 5.87602 1.32031C4.84726 1.32046 3.85867 1.71967 3.11829 2.43393C2.37791 3.1482 1.94347 4.12182 1.90639 5.14991C1.86932 6.178 2.2325 7.18039 2.91951 7.94613C3.60653 8.71187 4.56379 9.18125 5.58987 9.25549L5.0493 8.22758C4.54678 8.08653 4.0892 7.8181 3.72087 7.44829Z" fill="#0D123C"/>
</g>
</g>
</svg>
