<svg width="54" height="53" viewBox="0 0 54 53" fill="none" xmlns="http://www.w3.org/2000/svg">
<path d="M9.42575 26.6873H7.2373V17.9335C7.2373 15.5162 9.19691 13.5566 11.6142 13.5566H20.368M9.42575 26.6873V39.818C9.42575 42.2353 11.3854 44.1949 13.8027 44.1949H40.0641C42.4814 44.1949 44.441 42.2353 44.441 39.818V26.6873M9.42575 26.6873H22.5565M20.368 13.5566V11.3681C20.368 8.95081 22.3276 6.99121 24.7449 6.99121H29.1218C31.5392 6.99121 33.4987 8.95081 33.4987 11.3681V13.5566M20.368 13.5566H33.4987M44.441 26.6873H46.6294V17.9335C46.6294 15.5162 44.6699 13.5566 42.2525 13.5566H33.4987M44.441 26.6873H31.3103M22.5565 26.6873V22.3104H31.3103V26.6873M22.5565 26.6873V31.0642H31.3103V26.6873" stroke="#1C274C" stroke-width="2.91793" stroke-linecap="round" stroke-linejoin="round"/>
</svg>
