<svg width="21" height="29" viewBox="0 0 21 29" fill="none" xmlns="http://www.w3.org/2000/svg">
<g clip-path="url(#clip0_3732_4509)">
<path d="M5.8731 4.64344C5.8731 2.66414 7.30259 1.05957 9.06579 1.05957C10.829 1.05957 12.2584 2.66414 12.2584 4.64344C12.2584 6.62273 10.829 8.2273 9.06579 8.2273C7.30249 8.22741 5.8731 6.62273 5.8731 4.64344ZM20.5384 23.8008L18.2869 23.8029V25.0658H17.5363V23.8029H13.7837V25.0658H13.0332V23.8029H10.7817V28.0134H20.5384V23.8008ZM13.483 19.5927V14.4967C13.483 14.2255 13.6382 14.0415 13.8884 14.0415C14.13 14.0415 14.2939 14.2158 14.2939 14.4967V20.4307H10.7817V22.9603L20.5384 22.9582V20.4307H17.1065L17.1064 13.5864C17.1064 11.0973 15.2946 9.07323 13.086 9.07323H12.2751L9.81612 13.199L9.44086 9.96099L9.81612 9.0636H8.31526L8.69052 9.96099L8.31526 13.199L5.99432 9.07334H5.0453C2.82803 9.07334 1.0249 11.1072 1.0249 13.5865V25.6459C1.0249 26.5178 1.6545 27.2246 2.43123 27.2246C3.20796 27.2246 3.83756 26.5178 3.83756 25.6459V14.4968H3.82879C3.82879 14.2236 3.98641 14.0388 4.23979 14.0416C4.46201 14.044 4.63983 14.2523 4.63983 14.5017L4.63849 28.0134L10.0312 28.0164V19.5927H13.483Z" fill="#031E53"/>
</g>
<defs>
<clipPath id="clip0_3732_4509">
<rect width="19.9161" height="27.3847" fill="white" transform="translate(0.824219 0.844727)"/>
</clipPath>
</defs>
</svg>
