<svg width="27" height="22" viewBox="0 0 27 22" fill="none" xmlns="http://www.w3.org/2000/svg">
<path d="M0.312988 12.2471C0.312988 12.6163 0.540368 12.9463 0.882445 13.0735L2.44095 13.6531C2.55818 13.3694 2.73012 13.1035 2.95774 12.8729C3.4125 12.4122 4.01716 12.1585 4.66032 12.1585C5.30346 12.1585 5.90811 12.4122 6.3629 12.8729L11.1327 17.7052C11.8038 18.3851 11.9949 19.3697 11.7064 20.2235C12.4 20.738 13.3302 20.8267 14.1157 20.4266L20.6755 17.0853C21.7473 16.5395 22.1904 15.2954 21.8275 14.2254C21.8246 14.2254 21.8215 14.2256 21.8186 14.2256C20.9454 14.2256 20.1227 13.8368 19.5614 13.1589L15.0456 7.70442L14.4079 8.35045C13.9609 8.80329 13.3666 9.05276 12.7344 9.05276C12.1022 9.05276 11.5078 8.80334 11.0608 8.35045L10.8434 8.1301C10.3963 7.6772 10.1502 7.07508 10.1502 6.43459C10.1502 5.79412 10.3963 5.192 10.8434 4.73911L12.654 2.90473L12.276 2.44826C11.5851 1.60553 10.4106 1.35901 9.44603 1.85433L4.52232 4.3826L1.5063 3.15331C0.935297 2.92058 0.313043 3.34645 0.313043 3.97V12.2471H0.312988Z" fill="#031E53"/>
<path d="M26.5187 11.8883V5.11336C26.5187 4.62719 26.1296 4.23307 25.6498 4.23307H21.8017L17.8436 1.33862C17.4362 1.04066 16.961 0.894531 16.4882 0.894531C15.8911 0.894531 15.2977 1.12757 14.849 1.58211L13.06 3.39449L11.2883 5.18938C10.6096 5.87693 10.6096 6.9917 11.2883 7.67925L11.5058 7.89961C11.8451 8.2434 12.2899 8.41526 12.7346 8.41526C13.1794 8.41526 13.6242 8.2434 13.9635 7.89961L15.0866 6.76179L20.0435 12.7492C20.4131 13.1956 20.9255 13.4784 21.4756 13.562C21.5888 13.5792 21.7035 13.5881 21.8188 13.5881C21.9844 13.5881 22.1515 13.5701 22.3171 13.5331L25.8366 12.748C26.2349 12.6592 26.5187 12.3016 26.5187 11.8883Z" fill="#031E53"/>
<path d="M8.17224 20.7037C8.51959 21.0556 8.97484 21.2316 9.4301 21.2316C9.88536 21.2316 10.3406 21.0556 10.688 20.7037C10.959 20.4291 11.1238 20.0879 11.1833 19.7321C11.2764 19.176 11.1116 18.5842 10.688 18.155L5.91819 13.3228C5.57085 12.9709 5.11559 12.7949 4.66034 12.7949C4.20508 12.7949 3.74982 12.9709 3.40248 13.3228C3.24139 13.486 3.11814 13.6729 3.03177 13.8722C2.74566 14.5325 2.86891 15.3309 3.40248 15.8714L8.17224 20.7037Z" fill="#031E53"/>
</svg>
