<svg width="11" height="13" viewBox="0 0 11 13" fill="none" xmlns="http://www.w3.org/2000/svg">
<path d="M1.1134 1.8097C1.1134 1.41274 1.4352 1.09094 1.83217 1.09094H8.40368C8.80064 1.09094 9.12245 1.41274 9.12245 1.8097V5.59601C9.12245 5.87246 9.34655 6.09656 9.62299 6.09656C9.89944 6.09656 10.1235 5.87246 10.1235 5.59601V0.808608C10.1235 0.411645 9.80174 0.0898438 9.40478 0.0898438H0.83107C0.434107 0.0898438 0.112305 0.411645 0.112305 0.808608V11.3846C0.112305 11.7816 0.434106 12.1034 0.831069 12.1034H5.11792C5.39437 12.1034 5.61847 11.8793 5.61847 11.6029C5.61847 11.3264 5.39437 11.1023 5.11792 11.1023H1.83217C1.4352 11.1023 1.1134 10.7805 1.1134 10.3836V1.8097Z" fill="white"/>
<path d="M2.11426 2.59235C2.11426 2.3159 2.33836 2.0918 2.61481 2.0918H7.62056C7.89701 2.0918 8.12111 2.3159 8.12111 2.59235C8.12111 2.86879 7.89701 3.09289 7.62056 3.09289H2.61481C2.33836 3.09289 2.11426 2.86879 2.11426 2.59235ZM2.11426 4.59467C2.11426 4.31823 2.33836 4.09413 2.61481 4.09413H6.61933C6.89577 4.09413 7.11988 4.31823 7.11988 4.59467C7.11988 4.87112 6.89577 5.09522 6.61933 5.09522H2.61481C2.33836 5.09522 2.11426 4.87112 2.11426 4.59467ZM2.11426 6.59687C2.11426 6.32042 2.33836 6.09632 2.61481 6.09632H4.61714C4.89358 6.09632 5.11768 6.32042 5.11768 6.59687C5.11768 6.87331 4.89358 7.09742 4.61714 7.09742H2.61481C2.33836 7.09742 2.11426 6.87331 2.11426 6.59687Z" fill="white"/>
</svg>
