<svg width="24" height="33" viewBox="0 0 24 33" fill="none" xmlns="http://www.w3.org/2000/svg">
<g clip-path="url(#clip0_3732_4569)">
<path d="M6.52581 5.22884C6.52581 2.93703 8.18101 1.0791 10.2226 1.0791C12.2642 1.0791 13.9193 2.93703 13.9193 5.22884C13.9193 7.52065 12.2642 9.37858 10.2226 9.37858C8.18089 9.3787 6.52581 7.52065 6.52581 5.22884ZM23.5067 27.4111L20.8996 27.4135V28.8758H20.0306V27.4135H15.6855V28.8758H14.8164V27.4135H12.2095V32.2888H23.5067V27.4111ZM15.3372 22.5385V16.6379C15.3372 16.3239 15.517 16.1108 15.8067 16.1108C16.0864 16.1108 16.2762 16.3126 16.2762 16.6379V23.5088H12.2095V26.4378L23.5067 26.4354V23.5088H19.5329L19.5328 15.5838C19.5328 12.7018 17.4349 10.3581 14.8776 10.3581H13.9386L11.0914 15.1353L10.6569 11.386L11.0914 10.3469H9.35357L9.78809 11.386L9.35357 15.1353L6.66616 10.3582H5.5673C2.99994 10.3582 0.912109 12.7132 0.912109 15.5839V29.5475C0.912109 30.5571 1.64112 31.3754 2.54049 31.3754C3.43986 31.3754 4.16887 30.5571 4.16887 29.5475V16.638H4.15872C4.15872 16.3216 4.34122 16.1077 4.63461 16.111C4.89192 16.1137 5.09781 16.3548 5.09781 16.6437L5.09627 32.2888L11.3404 32.2922V22.5385H15.3372Z" fill="#031E53"/>
</g>
<defs>
<clipPath id="clip0_3732_4569">
<rect width="23.0608" height="31.7086" fill="white" transform="translate(0.679199 0.831055)"/>
</clipPath>
</defs>
</svg>
