<svg width="53" height="53" viewBox="0 0 53 53" fill="none" xmlns="http://www.w3.org/2000/svg">
<path d="M48.1455 48.6143H4.37646" stroke="#1C274C" stroke-width="2.18845" stroke-linecap="round"/>
<path d="M4.37646 24.5411L13.268 17.4279M48.1455 24.5411L30.3623 10.3146C27.9644 8.39642 24.5575 8.39642 22.1596 10.3146L20.4484 11.6836" stroke="#1C274C" stroke-width="2.18845" stroke-linecap="round"/>
<path d="M33.9204 12.5043V8.12743C33.9204 7.52311 34.4104 7.0332 35.0146 7.0332H40.4858C41.09 7.0332 41.58 7.52311 41.58 8.12743V19.0697" stroke="#1C274C" stroke-width="2.18845" stroke-linecap="round"/>
<path d="M8.75342 48.6134V21.2578" stroke="#1C274C" stroke-width="2.18845" stroke-linecap="round"/>
<path d="M43.7686 21.2578V30.0116M43.7686 48.6134V38.7654" stroke="#1C274C" stroke-width="2.18845" stroke-linecap="round"/>
<path d="M32.8265 48.614V37.6718C32.8265 34.5769 32.8265 33.0294 31.8651 32.0678C30.9035 31.1064 29.3561 31.1064 26.2611 31.1064C23.1662 31.1064 21.6187 31.1064 20.6573 32.0678M19.6958 48.614V37.6718" stroke="#1C274C" stroke-width="2.18845" stroke-linecap="round" stroke-linejoin="round"/>
<path d="M30.6381 21.2587C30.6381 23.6761 28.6785 25.6356 26.2612 25.6356C23.8438 25.6356 21.8843 23.6761 21.8843 21.2587C21.8843 18.8414 23.8438 16.8818 26.2612 16.8818C28.6785 16.8818 30.6381 18.8414 30.6381 21.2587Z" stroke="#1C274C" stroke-width="2.18845"/>
</svg>
