<svg width="33" height="33" viewBox="0 0 33 33" fill="none" xmlns="http://www.w3.org/2000/svg">
<path d="M15.2449 8.16827C16.9527 8.65098 18.6867 7.4922 19.1179 5.5801L19.9476 1.90016C20.0552 1.42319 19.7531 0.952708 19.315 0.914841C18.4406 0.839179 16.523 0.728973 15.1655 0.654808C14.2943 0.607191 13.5144 1.25422 13.3009 2.20109L12.9332 3.83221C12.5021 5.74424 13.5371 7.68559 15.2449 8.16827Z" fill="#031E53"/>
<path d="M18.8525 22.8386L14.7477 20.5887L16.3474 13.4245L18.4044 16.8251C18.6053 17.1573 18.9184 17.3837 19.2714 17.4521C19.3463 17.4666 19.4214 17.4737 19.4964 17.4737C19.7749 17.4737 20.0485 17.3748 20.2762 17.1879L23.7188 14.3614C24.3062 13.8791 24.4331 12.9551 24.0024 12.2975C23.5717 11.6399 22.7464 11.4979 22.159 11.98L19.8205 13.9C19.8205 13.9 18.1389 11.1363 17.5355 10.1447C17.3988 9.92002 17.1928 9.75993 16.957 9.69486L12.2993 8.40952C12.049 8.34046 11.7887 8.33002 11.5347 8.37884L6.6469 9.3183C5.95708 9.4529 5.48148 10.1677 5.5637 10.9462L6.0227 15.2931C6.10199 16.044 6.67155 16.5964 7.33072 16.5964C7.38085 16.5964 7.43147 16.5932 7.48241 16.5867C8.20573 16.4939 8.72467 15.7293 8.63922 14.9198L8.32957 11.9875L11.2764 11.4124L9.17725 20.8132L6.02723 25.0292L3.33576 21.9714C2.7343 21.288 1.75198 21.28 1.14168 21.9534C0.531374 22.6268 0.524166 23.7267 1.12563 24.4099L5.01615 28.83C5.30832 29.1619 5.70665 29.3478 6.12117 29.3478C6.1422 29.3478 6.16331 29.3473 6.18441 29.3464C6.62142 29.3264 7.03062 29.1009 7.31124 28.7253L11.7501 22.7845C11.8215 22.8425 11.898 22.8948 11.98 22.9397L16.3161 25.3165L15.1315 29.8754C14.8921 30.7966 15.365 31.7606 16.1878 32.0285C16.3325 32.0757 16.4784 32.0981 16.6219 32.0981C17.2942 32.0981 17.9136 31.605 18.1109 30.8458L19.6601 24.884C19.8707 24.0731 19.53 23.21 18.8525 22.8386Z" fill="#031E53"/>
<path d="M30.7329 18.8717C30.8497 18.6391 30.8424 18.3417 30.6925 18.1125L28.5157 14.7849C28.4805 14.7309 28.44 14.684 28.3956 14.644C28.1654 14.4363 27.8309 14.4183 27.581 14.6232L26.1445 15.8011L25.9826 15.9339L25.9523 15.9587L25.4224 15.1486C25.2633 14.9053 25.0069 14.76 24.7368 14.76C24.5555 14.76 24.3824 14.8234 24.236 14.9434L21.7162 17.0097C21.5335 17.1596 21.4138 17.3802 21.3792 17.6314C21.3445 17.8825 21.3991 18.1334 21.533 18.338L22.0629 19.1481L22.0326 19.173L21.8707 19.3057L20.4006 20.5113C20.1213 20.7403 20.0606 21.1796 20.2653 21.4923L22.4667 24.8576C22.6168 25.0869 22.8677 25.1844 23.101 25.1299L24.3646 27.0615C24.5828 27.3951 25.0013 27.4674 25.2993 27.2231L31.852 21.8498C32.15 21.6055 32.2147 21.137 31.9965 20.8034L30.7329 18.8717ZM25.1043 16.6541L25.0125 16.7295L24.9425 16.7868L23.073 18.3198L22.9112 18.4526L22.8809 18.4774L22.4484 17.8163L24.7022 15.9682L25.1347 16.6294L25.1043 16.6541ZM27.8295 22.7289L27.2618 23.1945C27.0233 23.3899 26.6886 23.332 26.514 23.0651L26.1678 22.5359L27.5988 21.3625L27.945 21.8918C28.1195 22.1587 28.0678 22.5335 27.8295 22.7289Z" fill="#031E53"/>
</svg>
