<svg width="28" height="28" viewBox="0 0 28 28" fill="none" xmlns="http://www.w3.org/2000/svg">
<path d="M6.12402 9.57162C6.12402 6.42539 6.12402 4.85228 7.10143 3.87487C8.07884 2.89746 9.65195 2.89746 12.7982 2.89746H15.0229C18.1691 2.89746 19.7422 2.89746 20.7196 3.87487C21.6971 4.85228 21.6971 6.42539 21.6971 9.57162V18.4705C21.6971 21.6167 21.6971 23.1898 20.7196 24.1672C19.7422 25.1447 18.1691 25.1447 15.0229 25.1447H12.7982C9.65195 25.1447 8.07884 25.1447 7.10143 24.1672C6.12402 23.1898 6.12402 21.6167 6.12402 18.4705V9.57162Z" stroke="#031E53" stroke-width="1.18188"/>
<path opacity="0.5" d="M6.12419 5.20605C5.03954 5.31274 4.30945 5.55387 3.76452 6.09879C2.78711 7.0762 2.78711 8.64932 2.78711 11.7956V16.245C2.78711 19.3912 2.78711 20.9643 3.76452 21.9418C4.30945 22.4867 5.03954 22.7278 6.12419 22.8344" stroke="#031E53" stroke-width="1.18188"/>
<path opacity="0.5" d="M21.6973 5.20605C22.7819 5.31274 23.512 5.55387 24.0569 6.09879C25.0343 7.0762 25.0343 8.64932 25.0343 11.7956V16.245C25.0343 19.3912 25.0343 20.9643 24.0569 21.9418C23.512 22.4867 22.7819 22.7278 21.6973 22.8344" stroke="#031E53" stroke-width="1.18188"/>
<path opacity="0.7" d="M10.5737 15.1328H17.2479" stroke="#031E53" stroke-width="1.18188" stroke-linecap="round"/>
<path d="M10.5737 10.6836H17.2479" stroke="#031E53" stroke-width="1.18188" stroke-linecap="round"/>
<path opacity="0.4" d="M10.5737 19.583H13.9108" stroke="#031E53" stroke-width="1.18188" stroke-linecap="round"/>
</svg>
