<svg width="84" height="33" viewBox="0 0 84 33" fill="none" xmlns="http://www.w3.org/2000/svg">
<rect x="0.5" y="0.5" width="83" height="32" rx="9.5" stroke="#0D123C"/>
<g clip-path="url(#clip0_3476_7953)">
<path d="M22.1118 19.478C24.4219 19.478 26.2946 17.6945 26.2946 15.4944C26.2946 13.2943 24.4219 11.5107 22.1118 11.5107C19.8017 11.5107 17.929 13.2943 17.929 15.4944C17.929 17.6945 19.8017 19.478 22.1118 19.478Z" fill="#00CC3D"/>
<path opacity="0.15" d="M22.1118 24.0462C23.6557 24.0462 25.1363 23.4621 26.228 22.4224C27.3198 21.3827 27.9331 19.9725 27.9331 18.5021C27.9331 17.0317 27.3198 15.6216 26.228 14.5818C25.1363 13.5421 23.6557 12.958 22.1118 12.958H13.5882C12.0443 12.958 10.5636 13.5421 9.47194 14.5818C8.38023 15.6216 7.76691 17.0317 7.76691 18.5021C7.76691 19.9725 8.38023 21.3827 9.47194 22.4224C10.5636 23.4621 12.0443 24.0462 13.5882 24.0462H22.1118Z" stroke="black" stroke-width="0.794134" stroke-miterlimit="10" stroke-linecap="round"/>
<path d="M22.1118 21.0394C23.6557 21.0394 25.1364 20.4553 26.2281 19.4156C27.3198 18.3758 27.9331 16.9657 27.9331 15.4953C27.9331 14.0249 27.3198 12.6147 26.2281 11.575C25.1364 10.5353 23.6557 9.95117 22.1118 9.95117H13.5883C12.8238 9.95117 12.0668 10.0946 11.3605 10.3732C10.6543 10.6518 10.0125 11.0602 9.47197 11.575C8.93141 12.0898 8.50261 12.701 8.21006 13.3736C7.91751 14.0463 7.76694 14.7672 7.76694 15.4953C7.76694 16.2233 7.91751 16.9443 8.21006 17.6169C8.50261 18.2896 8.93141 18.9007 9.47197 19.4156C10.0125 19.9304 10.6543 20.3388 11.3605 20.6174C12.0668 20.896 12.8238 21.0394 13.5883 21.0394H22.1118Z" stroke="black" stroke-width="0.794134" stroke-miterlimit="10"/>
</g>
<path d="M32.64 21L36.6 10.71H39.36L43.32 21H40.905L40.17 18.975H35.685L34.95 21H32.64ZM36.33 17.175H39.525L38.61 14.64C38.57 14.53 38.52 14.4 38.46 14.25C38.41 14.09 38.355 13.915 38.295 13.725C38.235 13.535 38.175 13.35 38.115 13.17C38.065 12.98 38.015 12.81 37.965 12.66H37.875C37.825 12.85 37.76 13.075 37.68 13.335C37.6 13.585 37.52 13.83 37.44 14.07C37.36 14.3 37.295 14.49 37.245 14.64L36.33 17.175ZM46.7195 21.18C46.2195 21.18 45.8145 21.09 45.5045 20.91C45.1945 20.73 44.9695 20.49 44.8295 20.19C44.6895 19.88 44.6195 19.54 44.6195 19.17V14.715H43.6445V13.11H44.6945L45.0845 10.86H46.7045V13.11H48.1445V14.715H46.7045V18.825C46.7045 19.065 46.7595 19.25 46.8695 19.38C46.9795 19.5 47.1595 19.56 47.4095 19.56H48.1445V20.94C48.0245 20.98 47.8845 21.015 47.7245 21.045C47.5645 21.085 47.3945 21.115 47.2145 21.135C47.0345 21.165 46.8695 21.18 46.7195 21.18ZM49.4914 11.955V10.155H51.5764V11.955H49.4914ZM49.4914 21V13.11H51.5764V21H49.4914ZM55.5305 21L52.5905 13.11H54.7955L55.9505 16.44C56.0105 16.61 56.0805 16.835 56.1605 17.115C56.2505 17.395 56.3405 17.69 56.4305 18C56.5205 18.31 56.5955 18.59 56.6555 18.84H56.7305C56.8005 18.61 56.8755 18.345 56.9555 18.045C57.0355 17.735 57.1155 17.44 57.1955 17.16C57.2855 16.87 57.3605 16.63 57.4205 16.44L58.5755 13.11H60.6755L57.7205 21H55.5305ZM65.3236 21.18C64.4636 21.18 63.7336 21.035 63.1336 20.745C62.5336 20.445 62.0786 19.99 61.7686 19.38C61.4586 18.76 61.3036 17.985 61.3036 17.055C61.3036 16.105 61.4586 15.33 61.7686 14.73C62.0786 14.12 62.5336 13.67 63.1336 13.38C63.7336 13.08 64.4636 12.93 65.3236 12.93C66.2036 12.93 66.9386 13.08 67.5286 13.38C68.1286 13.67 68.5836 14.12 68.8936 14.73C69.2036 15.33 69.3586 16.105 69.3586 17.055C69.3586 17.985 69.2036 18.76 68.8936 19.38C68.5836 19.99 68.1286 20.445 67.5286 20.745C66.9386 21.035 66.2036 21.18 65.3236 21.18ZM65.3236 19.56C65.7836 19.56 66.1486 19.475 66.4186 19.305C66.6986 19.135 66.9036 18.875 67.0336 18.525C67.1636 18.175 67.2286 17.745 67.2286 17.235V16.875C67.2286 16.365 67.1636 15.935 67.0336 15.585C66.9036 15.235 66.6986 14.975 66.4186 14.805C66.1486 14.625 65.7836 14.535 65.3236 14.535C64.8736 14.535 64.5086 14.625 64.2286 14.805C63.9586 14.975 63.7586 15.235 63.6286 15.585C63.4986 15.935 63.4336 16.365 63.4336 16.875V17.235C63.4336 17.745 63.4986 18.175 63.6286 18.525C63.7586 18.875 63.9586 19.135 64.2286 19.305C64.5086 19.475 64.8736 19.56 65.3236 19.56Z" fill="black"/>
<defs>
<clipPath id="clip0_3476_7953">
<rect width="21" height="20" fill="white" transform="translate(7.35001 7)"/>
</clipPath>
</defs>
</svg>
