<svg width="131" height="101" viewBox="0 0 131 101" fill="none" xmlns="http://www.w3.org/2000/svg">
<path opacity="0.15" d="M92.9039 99.8566C102.795 99.8566 112.282 95.9259 119.276 88.929C126.27 81.9322 130.2 72.4425 130.2 62.5475C130.2 52.6524 126.27 43.1627 119.276 36.1659C112.282 29.1691 102.795 25.2383 92.9039 25.2383H38.2957C28.4042 25.2383 18.9179 29.1691 11.9236 36.1659C4.92927 43.1627 0.999878 52.6524 0.999878 62.5475C0.999878 72.4425 4.92927 81.9322 11.9236 88.929C18.9179 95.9259 28.4042 99.8566 38.2957 99.8566H92.9039Z" stroke="black" stroke-width="0.794134" stroke-miterlimit="10" stroke-linecap="round"/>
<path d="M38.2954 4.99211C28.404 4.99211 18.9177 8.92288 11.9233 15.9197C4.92903 22.9165 0.999636 32.4062 0.999636 42.3012C0.999636 52.1962 4.92903 61.6859 11.9233 68.6828C18.9177 75.6796 28.404 79.6104 38.2954 79.6104L92.9036 79.6104C97.8013 79.6104 102.651 78.6453 107.176 76.7704C111.701 74.8954 115.812 72.1472 119.276 68.6828C122.739 65.2183 125.486 61.1054 127.36 56.5788C129.235 52.0523 130.199 47.2007 130.199 42.3012C130.199 37.4017 129.235 32.5502 127.36 28.0236C125.486 23.4971 122.739 19.3842 119.276 15.9197C115.812 12.4552 111.701 9.70706 107.176 7.8321C102.651 5.95714 97.8013 4.99211 92.9036 4.99211L38.2954 4.99211Z" stroke="black" stroke-miterlimit="10"/>
<path d="M92.9035 15.4896C78.1031 15.4896 66.1051 27.492 66.1051 42.2976C66.1051 57.1032 78.1031 69.1055 92.9035 69.1055C107.704 69.1055 119.702 57.1032 119.702 42.2976C119.702 27.492 107.704 15.4896 92.9035 15.4896Z" fill="#00CC3D"/>
</svg>
