<svg width="49" height="49" viewBox="0 0 49 49" fill="none" xmlns="http://www.w3.org/2000/svg">
<path d="M24.5 0C10.9903 0 0 10.9903 0 24.5C0 38.0097 10.9903 49 24.5 49C38.0097 49 49 38.0097 49 24.5C49 10.9903 38.0097 0 24.5 0ZM30.0268 33.2649C30.825 34.0631 30.825 35.3535 30.0268 36.1518C29.6286 36.5499 29.106 36.75 28.5833 36.75C28.0606 36.75 27.5379 36.5499 27.1398 36.1518L16.9315 25.9435C16.1333 25.1452 16.1333 23.8549 16.9315 23.0566L27.1399 12.8482C27.9381 12.05 29.2285 12.05 30.0268 12.8482C30.825 13.6465 30.825 14.9369 30.0268 15.7351L21.2619 24.5L30.0268 33.2649Z" fill="#2D2D2D"/>
</svg>
