<svg width="350" height="350" viewBox="0 0 350 350" fill="none" xmlns="http://www.w3.org/2000/svg">
<path d="M174.999 29.167C94.6452 29.167 29.166 94.6462 29.166 175C29.166 255.355 94.6452 320.834 174.999 320.834C255.354 320.834 320.833 255.355 320.833 175C320.833 94.6462 255.354 29.167 174.999 29.167ZM244.708 141.459L162.02 224.146C159.979 226.188 157.208 227.355 154.291 227.355C151.374 227.355 148.604 226.188 146.562 224.146L105.291 182.875C101.062 178.646 101.062 171.646 105.291 167.417C109.52 163.188 116.52 163.188 120.749 167.417L154.291 200.959L229.249 126C233.479 121.771 240.479 121.771 244.708 126C248.937 130.23 248.937 137.084 244.708 141.459Z" fill="#292D32"/>
</svg>
