<svg width="131" height="97" viewBox="0 0 131 97" fill="none" xmlns="http://www.w3.org/2000/svg">
<path opacity="0.15" d="M92.9039 95.8556C102.795 95.8556 112.282 91.9249 119.276 84.928C126.27 77.9312 130.2 68.4415 130.2 58.5465C130.2 48.6515 126.27 39.1617 119.276 32.1649C112.282 25.1681 102.795 21.2373 92.9039 21.2373H38.2957C28.4042 21.2373 18.9179 25.1681 11.9236 32.1649C4.92927 39.1617 0.999878 48.6515 0.999878 58.5465C0.999878 68.4415 4.92927 77.9312 11.9236 84.928C18.9179 91.9249 28.4042 95.8556 38.2957 95.8556H92.9039Z" stroke="black" stroke-width="0.794134" stroke-miterlimit="10" stroke-linecap="round"/>
<path d="M92.9036 75.6124C102.795 75.6124 112.281 71.6816 119.276 64.6848C126.27 57.688 130.199 48.1983 130.199 38.3033C130.199 28.4083 126.27 18.9185 119.276 11.9217C112.281 4.92491 102.795 0.994141 92.9036 0.994141L38.2954 0.994141C33.3977 0.99414 28.5479 1.95917 24.0229 3.83413C19.498 5.70909 15.3866 8.45726 11.9233 11.9217C8.46011 15.3862 5.7129 19.4991 3.83861 24.0257C1.96432 28.5522 0.999634 33.4038 0.999634 38.3033C0.999634 43.2028 1.96432 48.0543 3.83861 52.5809C5.7129 57.1074 8.46011 61.2203 11.9233 64.6848C15.3866 68.1493 19.498 70.8975 24.0229 72.7724C28.5479 74.6474 33.3977 75.6124 38.2954 75.6124L92.9036 75.6124Z" stroke="black" stroke-miterlimit="10"/>
<path d="M38.2955 65.1149C53.0958 65.1149 65.0939 53.1126 65.0939 38.3069C65.0939 23.5013 53.0958 11.499 38.2955 11.499C23.4952 11.499 11.4972 23.5013 11.4972 38.3069C11.4972 53.1126 23.4952 65.1149 38.2955 65.1149Z" fill="#E62828"/>
</svg>
