<svg width="88" height="33" viewBox="0 0 88 33" fill="none" xmlns="http://www.w3.org/2000/svg">
<rect x="0.5" y="0.5" width="87" height="32" rx="9.5" stroke="black"/>
<path d="M9.94116 19.478C7.74106 19.478 5.95752 17.6945 5.95752 15.4944C5.95752 13.2943 7.74106 11.5107 9.94116 11.5107C12.1413 11.5107 13.9248 13.2943 13.9248 15.4944C13.9248 17.6945 12.1413 19.478 9.94116 19.478Z" fill="#E62828"/>
<path opacity="0.15" d="M9.94115 24.0462C8.47076 24.0462 7.0606 23.4621 6.02087 22.4224C4.98115 21.3827 4.39704 19.9725 4.39704 18.5021C4.39704 17.0317 4.98115 15.6216 6.02087 14.5818C7.0606 13.5421 8.47076 12.958 9.94115 12.958H18.0588C19.5292 12.958 20.9393 13.5421 21.9791 14.5818C23.0188 15.6216 23.6029 17.0317 23.6029 18.5021C23.6029 19.9725 23.0188 21.3827 21.9791 22.4224C20.9393 23.4621 19.5292 24.0462 18.0588 24.0462H9.94115Z" stroke="black" stroke-width="0.794134" stroke-miterlimit="10" stroke-linecap="round"/>
<path d="M9.94115 21.0394C8.47076 21.0394 7.0606 20.4553 6.02087 19.4156C4.98115 18.3758 4.39704 16.9657 4.39704 15.4953C4.39704 14.0249 4.98115 12.6147 6.02087 11.575C7.0606 10.5353 8.47076 9.95117 9.94115 9.95117H18.0588C18.7869 9.95117 19.5078 10.0946 20.1804 10.3732C20.8531 10.6518 21.4642 11.0602 21.9791 11.575C22.4939 12.0898 22.9023 12.701 23.1809 13.3736C23.4595 14.0463 23.6029 14.7672 23.6029 15.4953C23.6029 16.2233 23.4595 16.9443 23.1809 17.6169C22.9023 18.2896 22.4939 18.9007 21.9791 19.4156C21.4642 19.9304 20.8531 20.3388 20.1804 20.6174C19.5078 20.896 18.7869 21.0394 18.0588 21.0394H9.94115Z" stroke="black" stroke-width="0.794134" stroke-miterlimit="10"/>
<path d="M34.14 21V10.71H36.375V21H34.14ZM38.4717 21V13.11H40.1967L40.3617 14.19H40.4667C40.6467 13.93 40.8617 13.705 41.1117 13.515C41.3717 13.325 41.6617 13.18 41.9817 13.08C42.3017 12.98 42.6517 12.93 43.0317 12.93C43.5517 12.93 44.0067 13.025 44.3967 13.215C44.7867 13.405 45.0867 13.705 45.2967 14.115C45.5167 14.525 45.6267 15.06 45.6267 15.72V21H43.5417V16.05C43.5417 15.8 43.5117 15.59 43.4517 15.42C43.3917 15.24 43.3017 15.095 43.1817 14.985C43.0717 14.865 42.9317 14.78 42.7617 14.73C42.5917 14.68 42.4017 14.655 42.1917 14.655C41.8817 14.655 41.6017 14.73 41.3517 14.88C41.1017 15.03 40.9067 15.235 40.7667 15.495C40.6267 15.755 40.5567 16.055 40.5567 16.395V21H38.4717ZM49.5802 21.18C49.3202 21.18 49.0402 21.15 48.7402 21.09C48.4502 21.03 48.1752 20.925 47.9152 20.775C47.6552 20.615 47.4402 20.39 47.2702 20.1C47.1102 19.8 47.0302 19.42 47.0302 18.96C47.0302 18.41 47.1502 17.955 47.3902 17.595C47.6302 17.235 47.9702 16.955 48.4102 16.755C48.8602 16.545 49.3952 16.4 50.0152 16.32C50.6352 16.24 51.3202 16.2 52.0702 16.2V15.615C52.0702 15.385 52.0302 15.185 51.9502 15.015C51.8802 14.845 51.7502 14.71 51.5602 14.61C51.3802 14.51 51.1252 14.46 50.7952 14.46C50.4652 14.46 50.1952 14.5 49.9852 14.58C49.7852 14.66 49.6402 14.765 49.5502 14.895C49.4702 15.015 49.4302 15.15 49.4302 15.3V15.48H47.4052C47.3952 15.43 47.3902 15.385 47.3902 15.345C47.3902 15.295 47.3902 15.235 47.3902 15.165C47.3902 14.705 47.5302 14.31 47.8102 13.98C48.0902 13.64 48.4852 13.38 48.9952 13.2C49.5052 13.02 50.1002 12.93 50.7802 12.93C51.5102 12.93 52.1202 13.025 52.6102 13.215C53.1102 13.405 53.4902 13.685 53.7502 14.055C54.0202 14.425 54.1552 14.89 54.1552 15.45V19.035C54.1552 19.215 54.2052 19.35 54.3052 19.44C54.4152 19.52 54.5352 19.56 54.6652 19.56H55.1602V20.925C55.0602 20.975 54.9052 21.025 54.6952 21.075C54.4852 21.135 54.2302 21.165 53.9302 21.165C53.6402 21.165 53.3802 21.12 53.1502 21.03C52.9302 20.95 52.7452 20.835 52.5952 20.685C52.4452 20.525 52.3402 20.335 52.2802 20.115H52.1752C52.0052 20.325 51.7952 20.51 51.5452 20.67C51.3052 20.83 51.0202 20.955 50.6902 21.045C50.3702 21.135 50.0002 21.18 49.5802 21.18ZM50.2852 19.605C50.5652 19.605 50.8152 19.565 51.0352 19.485C51.2552 19.395 51.4402 19.28 51.5902 19.14C51.7402 18.99 51.8552 18.81 51.9352 18.6C52.0252 18.39 52.0702 18.165 52.0702 17.925V17.49C51.5102 17.49 51.0102 17.53 50.5702 17.61C50.1302 17.68 49.7802 17.805 49.5202 17.985C49.2702 18.165 49.1452 18.415 49.1452 18.735C49.1452 18.915 49.1902 19.07 49.2802 19.2C49.3702 19.33 49.5002 19.43 49.6702 19.5C49.8402 19.57 50.0452 19.605 50.2852 19.605ZM58.5513 21.18C58.0513 21.18 57.6463 21.09 57.3363 20.91C57.0263 20.73 56.8013 20.49 56.6613 20.19C56.5213 19.88 56.4513 19.54 56.4513 19.17V14.715H55.4763V13.11H56.5263L56.9163 10.86H58.5363V13.11H59.9763V14.715H58.5363V18.825C58.5363 19.065 58.5913 19.25 58.7013 19.38C58.8113 19.5 58.9913 19.56 59.2413 19.56H59.9763V20.94C59.8563 20.98 59.7163 21.015 59.5563 21.045C59.3963 21.085 59.2263 21.115 59.0463 21.135C58.8663 21.165 58.7013 21.18 58.5513 21.18ZM61.3233 11.955V10.155H63.4083V11.955H61.3233ZM61.3233 21V13.11H63.4083V21H61.3233ZM67.3623 21L64.4223 13.11H66.6273L67.7823 16.44C67.8423 16.61 67.9123 16.835 67.9923 17.115C68.0823 17.395 68.1723 17.69 68.2623 18C68.3523 18.31 68.4273 18.59 68.4873 18.84H68.5623C68.6323 18.61 68.7073 18.345 68.7873 18.045C68.8673 17.735 68.9473 17.44 69.0273 17.16C69.1173 16.87 69.1923 16.63 69.2523 16.44L70.4073 13.11H72.5073L69.5523 21H67.3623ZM77.1554 21.18C76.2954 21.18 75.5654 21.035 74.9654 20.745C74.3654 20.445 73.9104 19.99 73.6004 19.38C73.2904 18.76 73.1354 17.985 73.1354 17.055C73.1354 16.105 73.2904 15.33 73.6004 14.73C73.9104 14.12 74.3654 13.67 74.9654 13.38C75.5654 13.08 76.2954 12.93 77.1554 12.93C78.0354 12.93 78.7704 13.08 79.3604 13.38C79.9604 13.67 80.4154 14.12 80.7254 14.73C81.0354 15.33 81.1904 16.105 81.1904 17.055C81.1904 17.985 81.0354 18.76 80.7254 19.38C80.4154 19.99 79.9604 20.445 79.3604 20.745C78.7704 21.035 78.0354 21.18 77.1554 21.18ZM77.1554 19.56C77.6154 19.56 77.9804 19.475 78.2504 19.305C78.5304 19.135 78.7354 18.875 78.8654 18.525C78.9954 18.175 79.0604 17.745 79.0604 17.235V16.875C79.0604 16.365 78.9954 15.935 78.8654 15.585C78.7354 15.235 78.5304 14.975 78.2504 14.805C77.9804 14.625 77.6154 14.535 77.1554 14.535C76.7054 14.535 76.3404 14.625 76.0604 14.805C75.7904 14.975 75.5904 15.235 75.4604 15.585C75.3304 15.935 75.2654 16.365 75.2654 16.875V17.235C75.2654 17.745 75.3304 18.175 75.4604 18.525C75.5904 18.875 75.7904 19.135 76.0604 19.305C76.3404 19.475 76.7054 19.56 77.1554 19.56Z" fill="black"/>
</svg>
