<svg width="103" height="28" viewBox="0 0 103 28" fill="none" xmlns="http://www.w3.org/2000/svg">
<path d="M87.141 12.2315V15.9606C87.141 16.3623 87.2448 16.6569 87.4524 16.8431C87.6624 17.0306 87.9391 17.1237 88.2825 17.1237H89.5426V17.5879H80.6577V17.1237H81.9327C82.2749 17.1237 82.5504 17.0306 82.7579 16.8431C82.9654 16.6569 83.0692 16.3623 83.0692 15.9606V12.2315C83.0692 11.9089 82.9568 11.6296 82.7332 11.3949C82.5121 11.1603 82.2452 11.0429 81.9327 11.0429H80.6577V10.5838H89.5426V11.0429H88.2825C87.9688 11.0429 87.7007 11.1603 87.4771 11.3949C87.2522 11.6296 87.141 11.9089 87.141 12.2315ZM84.4479 17.1237V11.0429H83.7709V17.1237H84.4479Z" fill="#282A3B"/>
<path d="M103 17.1237V17.5879H95.1578V17.1237H95.9336C96.1139 17.1237 96.2622 17.0828 96.3783 17.0012C96.4932 16.9196 96.5513 16.7959 96.5513 16.6288C96.5513 16.463 96.4487 16.2501 96.2449 15.9912L95.8595 15.4963H91.2342C91.0328 15.8203 90.9327 16.106 90.9327 16.3534C90.9327 16.602 91.0044 16.7921 91.1502 16.9247C91.2947 17.0573 91.4825 17.1237 91.7135 17.1237H92.687V17.5879H88.1309V17.1237C88.3483 17.1237 88.5756 17.0701 88.8128 16.9604C89.05 16.8482 89.2576 16.7143 89.4355 16.5574C89.6158 16.398 89.7826 16.2348 89.9345 16.0677C90.089 15.9019 90.2063 15.7654 90.2854 15.6596C90.3669 15.5512 90.4089 15.4938 90.4089 15.4861L93.0922 11.9612L92.8303 11.6296C92.6647 11.4192 92.4906 11.27 92.3065 11.1807C92.1212 11.0889 91.8679 11.0429 91.5455 11.0429H90.7203V10.5838H96.6946L101.809 17.1237H103ZM91.6295 14.9811H95.4641L93.5023 12.4764L91.6295 14.9811ZM97.9695 17.1237H98.775L94.0212 11.0429H93.2157L97.9695 17.1237Z" fill="#282A3B"/>
<path d="M28.0073 15.896V12.0343H27.4044V17.2886C27.8059 17.119 28.0073 16.6548 28.0073 15.896ZM24.6223 11.6211H32.3805V12.0343H31.4515C31.1353 12.0343 30.8857 12.1389 30.7054 12.3455C30.5238 12.5495 30.4336 12.802 30.4336 13.1005V16.0082C30.4336 16.3525 30.3693 16.6484 30.2409 16.8958C30.1124 17.1445 29.8974 17.3651 29.5985 17.559C29.0055 17.9326 27.9888 18.1201 26.5495 18.1201C25.1091 18.1201 23.8045 17.8842 22.6358 17.411V17.9059H22.1763V15.3705H22.6358C22.7112 15.558 22.8582 15.8067 23.0756 16.1153C23.2955 16.4252 23.5167 16.6841 23.7378 16.8907C23.9577 17.0986 24.2492 17.286 24.6124 17.4518C24.9744 17.6189 25.3314 17.7018 25.6848 17.7018C26.4124 17.7018 26.7768 17.3536 26.7768 16.656V13.1005C26.7768 12.802 26.6842 12.5495 26.5001 12.3455C26.3185 12.1389 26.0714 12.0343 25.7589 12.0343H24.6223V11.6211Z" fill="#282A3B"/>
<path d="M38.8386 12.5087H42.5151V12.927C42.0765 12.927 41.7145 13.0137 41.4279 13.1872C41.0882 13.3887 40.9189 13.8236 40.9189 14.4931V16.253C40.9189 16.832 40.7917 17.235 40.5384 17.462C40.2123 17.7579 39.7898 17.9518 39.2734 18.0436C38.9473 18.0946 38.5001 18.1201 37.9343 18.1201C37.3709 18.1201 36.8372 18.0806 36.3332 18.0028C35.8316 17.9237 35.4536 17.8332 35.1966 17.7273C34.9397 17.6227 34.7383 17.4863 34.5938 17.3192C34.4517 17.1496 34.3665 17.0029 34.3368 16.8805C34.3096 16.7581 34.2973 16.614 34.2973 16.4469V13.7738C34.2973 13.2101 34.0181 12.927 33.4622 12.927H33.1261V12.5087H38.4383V12.927H38.29C37.7329 12.927 37.4549 13.2101 37.4549 13.7738V16.5438C37.4549 16.9494 37.5241 17.2478 37.6625 17.4416C37.8033 17.6355 38.0343 17.7324 38.3543 17.7324C39.1153 17.7324 39.6366 17.6227 39.9208 17.4008C40.2074 17.1764 40.3507 16.8703 40.3507 16.4826V14.4931C40.3507 14.1641 40.2963 13.8861 40.1876 13.6616C40.0814 13.4346 39.9418 13.2726 39.7676 13.177C39.4612 13.0112 39.1511 12.927 38.8386 12.927V12.5087ZM35.3449 12.927H34.8853V16.1918C34.8853 16.5999 34.9854 16.8945 35.1868 17.0743C35.2288 17.1126 35.2819 17.1445 35.3449 17.1713V12.927Z" fill="#282A3B"/>
<path d="M55.4727 17.4875V17.9059H50.714L49.113 15.7888C48.9512 15.5682 48.8165 15.4572 48.7078 15.4572C48.6015 15.4572 48.5398 15.4955 48.52 15.5695C48.5027 15.6447 48.4953 15.7939 48.4953 16.0184V16.6305C48.4953 17.2019 48.7733 17.4875 49.3304 17.4875H49.9382V17.9059H43.4895V17.4875H44.4828C45.0461 17.4875 45.3278 17.2019 45.3278 16.6305V13.7942C45.3278 13.557 45.245 13.353 45.0807 13.1821C44.9152 13.0125 44.7163 12.927 44.4828 12.927H43.4895V12.5087C48.2989 12.5023 51.16 12.4985 52.073 12.4985C53.9606 12.4985 54.9045 13.0086 54.9045 14.0289C54.9045 14.3184 54.8155 14.562 54.6376 14.7584C54.4597 14.956 54.2077 15.1027 53.8816 15.1971C53.3306 15.3539 52.6585 15.4368 51.8654 15.447V15.5083C51.9964 15.6243 52.2039 15.7416 52.4881 15.8602C52.7747 15.9801 53.0959 16.0681 53.4517 16.1255L54.5091 17.4875H55.4727ZM45.9109 17.4875H46.3853V12.927H45.9109V17.4875ZM48.4953 13.3198V14.4829C48.4953 14.6194 48.6213 14.7367 48.8758 14.8349C49.1328 14.9344 49.4354 14.9828 49.785 14.9828C50.1371 14.9828 50.4398 14.9063 50.6943 14.7533C50.9512 14.5977 51.0797 14.3452 51.0797 13.9983C51.0797 13.6514 50.9377 13.3861 50.6547 13.2025C50.3706 13.0188 50.0877 12.927 49.8048 12.927H48.8709C48.7621 12.927 48.6707 12.9666 48.5991 13.0443C48.5299 13.1196 48.4953 13.2114 48.4953 13.3198ZM49.5726 15.4572L51.1094 17.4875H51.6974C51.0254 16.5872 50.5164 15.91 50.1705 15.4572H49.5726ZM52.1767 14.6665C52.3077 14.4663 52.3744 14.2572 52.3744 14.0391C52.3744 13.8185 52.3077 13.6093 52.1767 13.4116C52.0446 13.2114 51.8852 13.0686 51.6974 12.9831L51.6628 13.0137C51.7975 13.2663 51.8654 13.608 51.8654 14.0391C51.8654 14.4714 51.7975 14.8132 51.6628 15.0644L51.6974 15.09C51.8852 15.0083 52.0446 14.868 52.1767 14.6665Z" fill="#282A3B"/>
<path d="M61.5201 16.6407C61.5201 17.2057 61.8018 17.4875 62.3651 17.4875H63.3584V17.9059H56.5242V17.4875H57.5175C58.0808 17.4875 58.3625 17.2057 58.3625 16.6407V13.7942C58.3625 13.5634 58.2797 13.3606 58.1154 13.1872C57.9499 13.0137 57.751 12.927 57.5175 12.927H56.5242V12.5087H63.3584V12.927H62.3651C62.1304 12.927 61.9315 13.0137 61.7672 13.1872C61.6017 13.3606 61.5201 13.5634 61.5201 13.7942V16.6407ZM59.42 12.927H58.9456V17.4875H59.42V12.927ZM57.893 11.8711H57.389V11.5242C58.0709 11.5242 58.5812 11.4413 58.9209 11.2742C59.2594 11.1046 59.5583 10.833 59.8153 10.458H62.543C62.5233 10.5435 62.4751 10.6544 62.3997 10.7896C62.3231 10.9222 62.2391 11.0421 62.1477 11.1467C62.055 11.2487 61.9204 11.3546 61.7425 11.463C61.5671 11.5688 61.3719 11.6466 61.1544 11.6976C60.6665 11.8137 59.5793 11.8711 57.893 11.8711ZM59.2421 11.4528V11.4936C59.9598 11.4566 60.475 11.2015 60.7888 10.7284H60.1909C60.1143 10.8916 59.9808 11.0396 59.7906 11.1722C59.5991 11.3023 59.4163 11.3954 59.2421 11.4528Z" fill="#282A3B"/>
<path d="M65.0021 12.5087H71.1098C72.4267 12.5087 73.5485 12.7026 74.475 13.0903C74.9494 13.2841 75.325 13.5545 75.6017 13.9014C75.8784 14.2457 76.0168 14.6436 76.0168 15.0951C76.0168 15.544 75.9155 15.9406 75.7153 16.2837C75.5177 16.6242 75.2706 16.8945 74.9741 17.0948C74.6776 17.2963 74.3329 17.4569 73.9413 17.5794C73.2717 17.7975 72.5688 17.9059 71.8313 17.9059H65.0021V17.4876H65.9855C66.5451 17.4876 66.8255 17.2019 66.8255 16.6305V13.784C66.8255 13.5532 66.7427 13.353 66.5784 13.1821C66.4129 13.0125 66.2152 12.927 65.9855 12.927H65.0021V12.5087ZM67.8781 17.4978V12.927H67.4185V17.4978H67.8781ZM70.6206 17.4876H71.3421C71.6485 17.4876 71.9017 17.3753 72.1031 17.1509C72.465 16.753 72.6466 16.1089 72.6466 15.2175C72.6466 13.6909 72.0611 12.927 70.8924 12.927C70.612 12.927 70.3884 12.9984 70.2203 13.1413C70.0548 13.2816 69.9733 13.4665 69.9733 13.6973V16.6867C69.9733 17.221 70.1882 17.4876 70.6206 17.4876ZM73.6745 16.503C73.8882 16.1051 73.9957 15.6766 73.9957 15.2175C73.9957 14.7584 73.8882 14.3324 73.6745 13.9371C73.4632 13.5392 73.163 13.228 72.7751 13.0035L72.7405 13.029C73.1816 13.631 73.4027 14.3605 73.4027 15.2175C73.4027 16.0745 73.1816 16.8027 72.7405 17.4008L72.7751 17.4314C73.163 17.207 73.4632 16.8984 73.6745 16.503Z" fill="#282A3B"/>
<mask id="mask0_3788_3629" style="mask-type:luminance" maskUnits="userSpaceOnUse" x="0" y="5" width="22" height="23">
<path d="M0 5.35645H21.0052V27.7818H0V5.35645Z" fill="white"/>
</mask>
<g mask="url(#mask0_3788_3629)">
<path fill-rule="evenodd" clip-rule="evenodd" d="M10.5026 5.37402C13.6657 5.9246 17.1673 7.3505 21.006 9.65172C19.5103 18.8995 16.0094 24.9435 10.5026 27.7812C4.99656 24.9435 1.49569 18.8995 0 9.65172C3.83865 7.3505 7.33952 5.9246 10.5026 5.37402Z" fill="#282A3B"/>
</g>
<path fill-rule="evenodd" clip-rule="evenodd" d="M20.6092 9.84698C19.1159 18.7988 15.7236 24.5939 10.5027 27.3658C5.28253 24.5939 1.89027 18.7988 0.396973 9.84698C4.10227 7.65043 7.46977 6.2913 10.5027 5.75391C13.5364 6.2913 16.9039 7.65043 20.6092 9.84698Z" fill="#AB8E63"/>
<path fill-rule="evenodd" clip-rule="evenodd" d="M10.5027 26.7338C5.7042 24.0633 2.47963 18.6317 0.995117 10.1373C4.49518 8.09815 7.66225 6.83792 10.5027 6.32031C13.3432 6.83792 16.511 8.09815 20.0111 10.1373C18.5266 18.6317 15.302 24.0633 10.5027 26.7338Z" fill="#282A3B"/>
<path d="M7.25502 10.6946L7.2614 10.7028L7.25741 10.772C7.1009 13.7137 2.843 13.9379 2.61941 10.688L2.61621 10.6426L2.63378 10.6006C2.68968 10.4662 2.75915 10.3434 2.8406 10.233L3.44272 8.81204C3.71103 8.67769 3.97695 8.54911 4.24047 8.42465L3.7853 9.56785C4.10631 9.4607 4.45848 9.42031 4.81383 9.43844L4.92084 8.11392C5.13006 8.02079 5.33689 7.93177 5.54291 7.84523L5.49899 9.49531L6.24724 9.56043L5.81522 7.73313C6.09232 7.61939 6.36702 7.51224 6.63933 7.41086L9.24342 8.69747C9.33126 8.66038 9.4183 8.62741 9.50455 8.59774L9.56763 6.51576C9.8072 6.45971 10.0444 6.40944 10.2799 6.36328L11.4259 8.70571L11.4594 8.7222L11.5768 8.6373L10.9779 6.41438C11.7637 6.57758 12.5726 6.79682 13.4071 7.07293L13.5037 7.22871L13.6203 7.14382C13.8671 7.22789 14.1162 7.3169 14.3677 7.41086L14.0004 8.0315C14.315 8.54252 14.577 8.97441 14.787 9.32635L15.2454 9.26618L15.6015 7.90375C15.778 7.97875 15.9561 8.05623 16.1349 8.13618L15.8259 9.44504L15.6646 9.25794L15.7373 9.55548L15.8243 9.45328L15.6766 10.0805C15.9617 9.92061 16.2715 9.80357 16.5877 9.73104L16.5206 8.31091C16.753 8.41806 16.987 8.52933 17.2226 8.6439L17.3328 9.64367C17.6314 9.64285 17.9253 9.68406 18.1968 9.77308L17.8798 8.97194C18.1561 9.11288 18.4348 9.25959 18.7159 9.41124L19.1519 10.4415C19.2341 10.5528 19.3036 10.6756 19.3595 10.8099L19.3763 10.852L19.3739 10.8965C19.2094 13.281 16.8704 13.7895 15.5808 12.7403C15.5744 12.9208 15.5616 13.0972 15.544 13.2702C16.6101 14.1299 17.094 15.3135 16.9966 16.7954L16.9958 16.8094L16.8337 17.5529L17.0517 18.5823L16.7371 19.5343L16.8041 20.0766C15.1663 23.1089 13.0581 25.3129 10.5027 26.7347C8.60378 25.678 6.95157 24.1887 5.55569 22.2485C5.62756 22.1636 5.70822 22.0985 5.79765 22.0638C5.83519 21.9048 5.87032 21.7482 5.90466 21.5957C6.17697 20.3898 6.3822 19.3942 6.64652 18.6763C6.89966 17.9864 7.23346 17.4787 7.79005 17.3386C8.0368 16.9413 8.40893 16.7567 8.74991 16.7262C8.85053 16.427 9.00625 16.2028 9.1963 16.0808C9.20908 15.8937 9.32247 15.7363 9.49896 15.6572L9.42788 15.2929C8.43688 14.3442 8.07114 13.656 8.29713 12.8705C8.08791 12.3924 8.0384 11.9358 8.25002 11.3993L8.17735 11.0679L7.25502 10.6946ZM6.89407 9.61647L7.78765 9.69478L6.57545 8.39581L6.89407 9.61647Z" fill="#AB8E63"/>
<path d="M5.94626 22.2223C5.99337 22.0228 6.03729 21.8283 6.08041 21.6387C10.8206 20.2804 14.2999 20.2153 16.5191 21.4409L16.4449 21.7574C14.8406 24.2507 12.8578 26.1159 10.5028 27.3662C8.55034 26.3294 6.85342 24.8697 5.41602 22.9798C5.5342 22.5165 5.74342 22.2223 5.94626 22.2223Z" fill="#100F0D"/>
<path fill-rule="evenodd" clip-rule="evenodd" d="M16.6969 20.682L16.5196 21.4387C11.4145 21.5351 7.98466 21.6002 6.0801 21.6373C6.61993 19.2454 6.89064 17.6868 7.9032 17.5038C8.14357 17.0629 8.54844 16.8972 8.88383 16.9079C8.98924 16.5057 9.18329 16.2691 9.38213 16.1908C9.343 16.0005 9.46118 15.8166 9.70874 15.7919L9.59215 15.196C8.54125 14.2004 8.25457 13.5674 8.49014 12.8577C8.26575 12.3764 8.21384 11.9445 8.43824 11.4161L8.33123 10.9299L5.17773 9.65314L8.24978 9.92183L5.63451 7.12031L9.23839 8.90145C10.1408 8.50005 10.9082 8.50253 11.9183 9.213L10.9138 5.48094L10.3612 4.13911C9.80696 3.76326 9.47077 3.41544 9.35418 3.09565C9.25516 2.71733 9.47955 2.49067 9.05312 1.39693C9.16572 1.20901 9.33262 1.22714 9.58576 1.33429L10.5712 0.928774C10.8515 0.888387 11.2324 0.966688 11.2076 1.27165C11.3793 1.26423 11.4648 1.38045 11.4863 1.6681C11.646 1.69035 11.7922 1.90053 11.7746 2.11235C11.971 2.16675 12.0804 2.42803 12.0653 2.64892C12.1763 3.34951 11.9072 4.03443 11.8976 5.00866C13.9339 8.2363 15.0463 10.0661 15.2331 10.498C15.4136 11.5447 15.4543 12.4967 15.3529 13.3539C16.4246 14.1781 16.9125 15.3205 16.8167 16.7818L16.649 17.5516L16.8646 18.5704L16.5532 19.5141L16.6969 20.682Z" fill="#100F0D"/>
<path fill-rule="evenodd" clip-rule="evenodd" d="M9.66943 9.07854L9.77085 5.73633L11.3736 9.0126L14.6053 6.65121L12.7551 9.77995L15.6762 9.39751L12.7758 10.5687L9.66943 9.07854Z" fill="#100F0D"/>
<path d="M10.1436 0.350586H10.8016V5.09809H10.1436V0.350586Z" fill="#100F0D"/>
<path d="M9.83496 4.91617C9.83496 4.51066 10.152 4.18262 10.5433 4.18262C10.9346 4.18262 11.2516 4.51066 11.2516 4.91617C11.2516 5.32086 10.9346 5.6489 10.5433 5.6489C10.152 5.6489 9.83496 5.32086 9.83496 4.91617Z" fill="#100F0D"/>
<path fill-rule="evenodd" clip-rule="evenodd" d="M11.853 11.6141C10.7342 11.1666 10.093 10.8245 9.93088 10.5674L9.55876 10.6061C9.33357 10.963 9.08362 11.2449 8.80732 11.4518L8.82568 11.7196C8.65559 12.2603 8.80173 12.5125 8.86322 12.7969C8.85124 13.6417 9.00696 13.9797 9.54598 14.0497C9.7017 14.0703 9.67135 13.9137 10.0499 13.8634C10.6113 13.7901 11.2325 14.1635 11.9001 13.664C11.7149 14.6044 10.3405 14.086 9.9213 14.4907C10.0994 15.821 10.3158 16.7284 10.5721 17.2114C11.1008 16.6295 11.5895 15.7352 12.2068 15.2102C12.182 14.7396 12.1948 14.0827 12.2443 13.2403C12.1525 13.2815 12.0622 13.2692 11.9752 13.2016C12.1485 13.1216 12.2443 13.0227 12.2627 12.9032C11.8961 12.4565 11.7596 12.0263 11.853 11.6141Z" fill="#AB8E63"/>
<path fill-rule="evenodd" clip-rule="evenodd" d="M13.0122 13.1564C12.9675 12.5045 13.0354 11.6292 13.1631 10.5288C12.4956 9.34772 11.8056 7.68279 11.0941 5.53488L11.023 3.71006C11.0566 3.52214 11.1851 3.30866 11.4087 3.06881L10.6397 3.22047C10.4824 3.20234 10.3602 2.98804 10.4672 2.86935L11.2881 2.6633C11.3472 2.5817 11.3289 2.53555 11.233 2.52648L10.2915 2.73501C10.1526 2.7144 10.0911 2.61467 10.1071 2.43664L11.0605 2.1564C11.0981 2.04843 11.0542 2.0031 10.928 2.01958L9.99448 2.25449C9.86192 2.22729 9.80043 2.12508 9.81081 1.94788L10.7547 1.65858C10.817 1.58769 10.7842 1.54566 10.6573 1.53329L9.75012 1.78715C9.63752 1.78303 9.57763 1.6866 9.56885 1.49785L10.7379 1.08986C10.9464 1.08822 11.0534 1.18547 11.0582 1.38081C11.2091 1.43686 11.2873 1.55472 11.2929 1.73358C11.471 1.7954 11.5596 1.93881 11.5588 2.16465C11.7657 2.28663 11.8687 2.4795 11.8695 2.74242C11.8551 3.33009 11.7713 4.04964 11.6163 4.90188L14.8729 10.4101C14.9599 13.3139 15.2769 15.7346 14.3258 15.6143C13.6024 14.6788 13.041 13.9502 13.0122 13.1564Z" fill="#AB8E63"/>
<path fill-rule="evenodd" clip-rule="evenodd" d="M12.5949 11.6492C10.8852 10.1277 9.56997 9.89852 8.65003 10.9618L8.63965 10.234C9.328 9.02897 11.6055 9.17321 12.6444 10.8975L12.5949 11.6492Z" fill="#AB8E63"/>
<path fill-rule="evenodd" clip-rule="evenodd" d="M8.68848 9.731C9.84239 8.73534 11.4299 9.01887 12.7068 10.3788L12.5199 9.9387C11.2926 8.53918 9.42714 8.51363 8.68848 9.731Z" fill="#AB8E63"/>
<path fill-rule="evenodd" clip-rule="evenodd" d="M9.76717 16.0703C9.79911 16.7412 9.97879 17.2852 10.3046 17.7006C9.62982 19.387 8.61166 21.2621 7.25013 23.3243C7.06326 20.8359 7.17905 19.2856 7.5967 18.6757C7.47771 19.4916 7.5424 20.3917 7.79075 21.3783C7.66298 19.8337 7.76519 18.6279 8.09819 17.7616C7.94886 18.6287 8.01913 19.4504 8.30821 20.226C8.18044 18.3246 8.35932 17.3701 8.84564 17.3627C8.82967 17.9017 8.91272 18.3526 9.09479 18.7161C9.02132 17.4327 9.11795 16.6629 9.38227 16.4082C9.31439 17.0066 9.37828 17.4377 9.57312 17.7006C9.49247 16.8649 9.55715 16.3209 9.76717 16.0703Z" fill="#AB8E63"/>
<path fill-rule="evenodd" clip-rule="evenodd" d="M12.8386 13.8867C13.3097 15.3266 13.943 16.2662 14.7375 16.7072L15.889 15.9135C15.8683 16.7748 15.5928 17.543 15.0641 18.2172C14.4796 18.0095 13.9749 17.4869 13.5501 16.6503C13.8487 17.5364 14.1953 18.4166 14.561 18.8271L16.2747 17.8792C16.258 18.6804 15.9058 19.4296 15.2198 20.1261L14.3366 19.9085C14.0172 19.6785 13.5565 18.6647 12.9543 16.8679C13.2514 18.6103 13.5461 19.7964 13.8383 20.4244L14.9507 20.98L16.0639 19.9859C15.8427 21.3616 15.4914 22.2163 15.009 22.5509L13.7992 22.0523C13.1779 20.858 12.7491 19.1568 12.5111 16.9479C12.4744 19.4617 12.7315 21.2437 13.2818 22.2929L14.6441 23.7032C14.2831 23.9941 13.9565 24.3321 13.6635 24.7178L12.1294 23.1303L11.8771 17.7622C11.5712 20.1285 11.5712 22.1553 11.8771 23.84L12.5503 25.331C12.175 25.2618 11.8883 25.9302 11.6232 26.1981L11.0131 19.2524C10.7535 23.2111 10.6833 25.6681 10.8006 26.6217L9.59243 25.8297C10.1099 24.445 10.3542 22.7158 10.3239 20.642C9.97893 22.1512 9.5525 24.0205 9.15562 25.8354L8.21093 25.5313C8.15662 25.2206 8.31633 24.4713 8.69006 23.2845C8.24287 24.0098 7.9498 24.5999 7.81005 25.0524L7.32373 24.4095C9.53094 20.0552 11.1784 16.3388 12.3594 15.5146C12.3267 15.8986 12.4097 16.2432 12.6086 16.5498L12.5503 14.7406C12.7683 15.4923 13.0118 16.141 13.2818 16.6866L12.8386 13.8867Z" fill="#AB8E63"/>
<path fill-rule="evenodd" clip-rule="evenodd" d="M9.24902 1.48633C9.63233 2.02866 9.72257 2.53556 9.51814 3.00536C9.37839 2.68722 9.60119 2.33692 9.24902 1.48633Z" fill="#AB8E63"/>
<path fill-rule="evenodd" clip-rule="evenodd" d="M9.81915 12.1094C9.87984 12.1465 9.97646 12.1465 10.1074 12.1094C10.1873 12.2643 10.2775 12.3847 10.3781 12.4704C10.24 12.4762 10.109 12.4926 9.98685 12.5182L9.72412 12.4704C9.77283 12.397 9.80398 12.2775 9.81915 12.1094Z" fill="#100F0D"/>
<path fill-rule="evenodd" clip-rule="evenodd" d="M10.5688 12.8932L10.1958 12.7432L10.0585 12.8132L9.89638 12.7547L9.64564 12.9377L9.56977 12.9171L9.55859 13.0729L9.68477 12.9937L9.84048 12.9682C9.99381 13.0011 10.2046 12.9888 10.3436 12.9434L10.635 13.0209L10.5919 12.8165L10.5688 12.8932Z" fill="#100F0D"/>
<path fill-rule="evenodd" clip-rule="evenodd" d="M10.4506 13.1807C10.1687 13.2812 9.95632 13.3134 9.72395 13.226L9.56982 13.4007L9.75828 13.357C10.0122 13.456 10.1935 13.4436 10.3875 13.3521L10.6119 13.3628L10.4506 13.1807Z" fill="#100F0D"/>
<path fill-rule="evenodd" clip-rule="evenodd" d="M9.44149 9.76052V10.2254C9.40395 10.2806 9.34566 10.2996 9.2666 10.2831C9.31052 10.2476 9.33608 10.2073 9.34406 10.1619L9.33847 9.82811C9.38159 9.74569 9.41673 9.72344 9.44149 9.76052Z" fill="#100F0D"/>
<path fill-rule="evenodd" clip-rule="evenodd" d="M9.73445 9.64945L9.75681 10.0904L9.62744 10.1901C9.72886 10.1844 9.80871 10.1506 9.86621 10.0863L9.85263 9.60247C9.80232 9.56868 9.7632 9.58351 9.73445 9.64945Z" fill="#100F0D"/>
<path fill-rule="evenodd" clip-rule="evenodd" d="M10.1983 9.6074L10.1671 10.0533L10.0625 10.1201C10.1376 10.1695 10.2102 10.1695 10.2789 10.1201L10.3284 9.61234C10.2933 9.54888 10.2494 9.54723 10.1983 9.6074Z" fill="#100F0D"/>
<path fill-rule="evenodd" clip-rule="evenodd" d="M10.6209 9.66291L10.5674 10.1286C10.6201 10.2061 10.692 10.2275 10.7838 10.1937C10.7375 10.1706 10.7119 10.1393 10.7079 10.1014L10.7702 9.71319C10.7303 9.61346 10.6808 9.59615 10.6209 9.66291Z" fill="#100F0D"/>
<path fill-rule="evenodd" clip-rule="evenodd" d="M11.0134 9.79262L10.9487 10.2501C10.9895 10.3391 11.0573 10.3778 11.1516 10.3654C11.0957 10.302 11.0733 10.2525 11.0845 10.2171L11.1516 9.8635C11.1388 9.78685 11.0925 9.76294 11.0134 9.79262Z" fill="#100F0D"/>
<path fill-rule="evenodd" clip-rule="evenodd" d="M11.4312 10.0028L11.3506 10.4602C11.3841 10.5303 11.4448 10.5674 11.5335 10.5707C11.4951 10.5262 11.4776 10.4883 11.48 10.4553L11.5558 10.0951C11.5319 10.0234 11.4903 9.9929 11.4312 10.0028Z" fill="#100F0D"/>
<path fill-rule="evenodd" clip-rule="evenodd" d="M11.8402 10.245L11.7324 10.7024C11.7444 10.7733 11.8027 10.8211 11.9089 10.8458C11.873 10.7931 11.8594 10.7486 11.8682 10.7115L11.9624 10.3332C11.9464 10.2161 11.9057 10.1865 11.8402 10.245Z" fill="#100F0D"/>
<path fill-rule="evenodd" clip-rule="evenodd" d="M12.172 10.5773L12.0498 10.945C12.0722 11.0191 12.1281 11.0711 12.2167 11.0999C12.1776 11.0389 12.1624 10.9919 12.172 10.959L12.275 10.6705C12.267 10.5609 12.2327 10.5295 12.172 10.5773Z" fill="#100F0D"/>
<path fill-rule="evenodd" clip-rule="evenodd" d="M9.08712 10.0072L9.07354 10.4094C9.01525 10.4745 8.95535 10.5026 8.89307 10.4927L8.96015 10.3979V10.0954C8.9865 9.99732 9.02882 9.96765 9.08712 10.0072Z" fill="#100F0D"/>
<path fill-rule="evenodd" clip-rule="evenodd" d="M12.4337 10.8448L12.3115 11.2124C12.3299 11.2957 12.3858 11.3468 12.4784 11.3666C12.4273 11.3081 12.4129 11.2611 12.4337 11.2256L12.5367 10.9372C12.5191 10.8374 12.4848 10.8069 12.4337 10.8448Z" fill="#100F0D"/>
<path fill-rule="evenodd" clip-rule="evenodd" d="M9.90723 6.43555L10.8423 8.59583C10.5173 8.52577 10.2139 8.5134 9.93118 8.55874L9.90723 6.43555Z" fill="#AB8E63"/>
<path fill-rule="evenodd" clip-rule="evenodd" d="M6.33594 7.65625L8.85618 9.19012C8.66452 9.36651 8.54075 9.54454 8.48565 9.72504L6.33594 7.65625Z" fill="#AB8E63"/>
<path fill-rule="evenodd" clip-rule="evenodd" d="M10.4473 3.81435L10.4233 4.43498H10.6477V3.65527L10.4473 3.81435Z" fill="#AB8E63"/>
<path fill-rule="evenodd" clip-rule="evenodd" d="M7.07749 10.7626C6.93215 13.4866 3.00565 13.677 2.79883 10.6752C3.43608 9.14215 6.04815 9.37705 7.07749 10.7626Z" fill="#100F0D"/>
<path d="M5.00928 4.75019C5.00928 4.56392 5.15861 4.41309 5.34307 4.41309C5.52834 4.41309 5.67767 4.56392 5.67767 4.75019C5.67767 4.93647 5.52834 5.0873 5.34307 5.0873C5.15861 5.0873 5.00928 4.93647 5.00928 4.75019Z" fill="#100F0D"/>
<path d="M6.64567 10.4628L5.37437 5.0872L3.25181 10.4199L2.83496 10.7108L5.40711 4.63965L7.00182 10.7422L6.64567 10.4628Z" fill="#100F0D"/>
<path fill-rule="evenodd" clip-rule="evenodd" d="M3.35449 10.4493C4.53875 9.72311 5.70145 9.88301 6.84178 10.9289C6.51917 11.7054 5.91067 12.1966 5.01868 12.4027L5.35407 11.4095C5.16801 10.9726 4.50122 10.652 3.35449 10.4493Z" fill="#AB8E63"/>
<path d="M5.44171 4.91897L5.30915 9.86675L4.96338 9.82389L5.3914 4.54395L5.44171 4.91897Z" fill="#100F0D"/>
<path fill-rule="evenodd" clip-rule="evenodd" d="M14.915 10.9709C15.0604 13.6958 18.9869 13.8854 19.1937 10.8836C18.5565 9.35134 15.9444 9.58624 14.915 10.9709Z" fill="#100F0D"/>
<path d="M16.3149 4.95918C16.3149 4.7729 16.4643 4.62207 16.6487 4.62207C16.834 4.62207 16.9833 4.7729 16.9833 4.95918C16.9833 5.14545 16.834 5.29628 16.6487 5.29628C16.4643 5.29628 16.3149 5.14545 16.3149 4.95918Z" fill="#100F0D"/>
<path d="M14.9917 10.9512L16.5864 4.84863L19.1586 10.919L18.7409 10.6544L16.6184 5.29618L15.3263 10.7814L14.9917 10.9512Z" fill="#100F0D"/>
<path fill-rule="evenodd" clip-rule="evenodd" d="M18.6382 10.6582C17.4539 9.9321 16.2912 10.092 15.1509 11.1379C15.4735 11.9135 16.0812 12.4048 16.974 12.6116L16.6386 11.6185C16.8239 11.1816 17.4906 10.861 18.6382 10.6582Z" fill="#AB8E63"/>
<path d="M16.642 5.03418L17.1978 10.0586L16.7857 10.1221L16.5518 5.12814L16.642 5.03418Z" fill="#100F0D"/>
<path fill-rule="evenodd" clip-rule="evenodd" d="M12.2525 12.3244C11.7646 12.293 11.1505 12.073 10.4973 11.8562C10.3464 11.7713 10.1891 11.6831 10.1531 11.6394L9.87364 11.6815L9.65563 11.96C9.04234 12.3614 8.6798 12.4908 8.64307 12.4109V12.2526C9.33861 12.3062 9.70594 11.5496 9.70594 11.5496C9.89121 11.4622 10.0621 11.44 10.2178 11.4836L10.6586 11.7144C11.2607 11.9065 11.7566 12.0144 12.1447 12.0375L12.2525 12.3244Z" fill="#100F0D"/>
<path fill-rule="evenodd" clip-rule="evenodd" d="M10.3697 10.7956C9.95362 10.8063 9.47688 10.7082 9.10156 11.0899L9.28044 10.8055C9.59667 10.7016 9.93765 10.6316 10.2882 10.6794L10.3697 10.7956Z" fill="#100F0D"/>
<path fill-rule="evenodd" clip-rule="evenodd" d="M8.72903 11.6227C9.00134 11.5493 9.31358 11.4009 9.66574 11.1768C9.34951 11.5163 9.02929 11.7595 8.70508 11.9045L8.72903 11.6227Z" fill="#100F0D"/>
<path fill-rule="evenodd" clip-rule="evenodd" d="M11.147 11.334C11.4065 11.4486 11.8784 11.5862 12.5636 11.7461L12.5868 12.1928L11.821 11.9958L11.147 11.334Z" fill="#AB8E63"/>
<path fill-rule="evenodd" clip-rule="evenodd" d="M12.1324 11.6864C11.6628 11.6534 10.9425 11.4309 10.2334 11.1943C10.8619 11.557 11.9934 11.8776 12.5867 11.9131L12.1324 11.6864Z" fill="#100F0D"/>
<path fill-rule="evenodd" clip-rule="evenodd" d="M12.4238 15.8916C11.5941 16.5361 10.758 17.9629 9.91553 20.1718C10.9417 18.1516 11.7985 16.8601 12.4861 16.2971L12.4238 15.8916Z" fill="#100F0D"/>
<path fill-rule="evenodd" clip-rule="evenodd" d="M9.1556 20.2982C9.06057 20.2059 8.94398 19.816 8.80503 19.127C8.77788 19.8778 8.77788 20.4589 8.80503 20.8726L9.1556 20.2982Z" fill="#100F0D"/>
<path fill-rule="evenodd" clip-rule="evenodd" d="M15.4932 13.7354L15.5954 14.928L16.1863 15.6294L16.0545 16.9086L16.5137 15.5544L15.4932 13.7354Z" fill="#AB8E63"/>
<path fill-rule="evenodd" clip-rule="evenodd" d="M5.32335 4.58594C8.73158 4.87524 12.3275 4.9997 16.7012 4.90409L16.7291 5.03184C12.4337 5.80084 8.81783 5.68957 5.27783 4.75573L5.32335 4.58594Z" fill="#100F0D"/>
<path d="M10.1953 4.92718C10.1953 4.75904 10.3263 4.62305 10.4884 4.62305C10.6513 4.62305 10.783 4.75904 10.783 4.92718C10.783 5.09532 10.6513 5.23132 10.4884 5.23132C10.3263 5.23132 10.1953 5.09532 10.1953 4.92718Z" fill="#AB8E63"/>
<path d="M14.0945 15.3138C14.2422 14.0609 14.2901 12.5032 14.2374 10.6413L12.6499 6.65039L14.8731 10.4105C14.9601 13.3142 15.2771 15.7349 14.3261 15.6146C14.247 15.5124 14.1696 15.4118 14.0945 15.3138Z" fill="#182B37"/>
<path d="M11.1775 14.2568L10.6049 14.7266C10.5259 15.0217 10.6529 15.6786 10.9859 16.6973C10.8493 16.882 10.712 17.0584 10.5722 17.2117C10.3159 16.7287 10.0995 15.8212 9.92139 14.4909C10.1618 14.2593 10.7144 14.3302 11.1775 14.2568Z" fill="#182B37"/>
<path d="M13.1505 24.187L12.6011 22.5938L12.7464 20.5983C12.8734 21.2898 13.0523 21.8553 13.2814 22.2921L14.6438 23.7023C14.2828 23.9933 13.9562 24.3312 13.6632 24.7169L13.1505 24.187ZM15.5677 21.8107L14.7284 21.9212L14.1471 20.5777L14.9504 20.9791L16.0636 19.9851C15.9398 20.7574 15.7745 21.3657 15.5677 21.8107ZM15.9239 19.1881L14.4929 19.3356L14.2166 18.3029C14.3283 18.5155 14.4433 18.6944 14.5607 18.8262L16.2744 17.8784C16.2648 18.3317 16.1483 18.7686 15.9239 19.1881ZM14.2517 17.674L14.8626 17.7136L15.8464 16.4121C15.749 17.074 15.4886 17.6748 15.0638 18.2163C14.7731 18.1133 14.5024 17.932 14.2517 17.674Z" fill="#182B37"/>
</svg>
