<svg width="19" height="19" viewBox="0 0 19 19" fill="none" xmlns="http://www.w3.org/2000/svg">
<path d="M17.4167 7.91671V10.2917C17.4167 13.4584 15.8333 15.0417 12.6667 15.0417H12.2708C12.0254 15.0417 11.7879 15.1605 11.6375 15.3584L10.45 16.9417C9.92751 17.6384 9.07251 17.6384 8.55001 16.9417L7.36251 15.3584C7.23584 15.1842 6.94293 15.0417 6.72918 15.0417H6.33334C3.16668 15.0417 1.58334 14.25 1.58334 10.2917V6.33337C1.58334 3.16671 3.16668 1.58337 6.33334 1.58337H11.0833" stroke="#EB4956" stroke-width="1.5" stroke-miterlimit="10" stroke-linecap="round" stroke-linejoin="round"/>
<path d="M15.4375 5.54171C16.5306 5.54171 17.4167 4.6556 17.4167 3.56254C17.4167 2.46948 16.5306 1.58337 15.4375 1.58337C14.3444 1.58337 13.4583 2.46948 13.4583 3.56254C13.4583 4.6556 14.3444 5.54171 15.4375 5.54171Z" stroke="#EB4956" stroke-width="1.5" stroke-linecap="round" stroke-linejoin="round"/>
<path d="M12.6639 8.70833H12.671" stroke="#EB4956" stroke-width="2" stroke-linecap="round" stroke-linejoin="round"/>
<path d="M9.49644 8.70833H9.50355" stroke="#EB4956" stroke-width="2" stroke-linecap="round" stroke-linejoin="round"/>
<path d="M6.32898 8.70833H6.3361" stroke="#EB4956" stroke-width="2" stroke-linecap="round" stroke-linejoin="round"/>
</svg>
