<svg width="136" height="136" viewBox="0 0 136 136" fill="none" xmlns="http://www.w3.org/2000/svg">
<path fill-rule="evenodd" clip-rule="evenodd" d="M44.2791 49.0231C44.2791 35.9223 54.8993 25.3021 68 25.3021C81.1009 25.3021 91.7209 35.9223 91.7209 49.0231C91.7209 62.124 81.1009 72.744 68 72.744C54.8993 72.744 44.2791 62.124 44.2791 49.0231ZM68 34.7905C60.1398 34.7905 53.7674 41.1626 53.7674 49.0231C53.7674 56.8832 60.1398 63.2556 68 63.2556C75.8602 63.2556 82.2325 56.8832 82.2325 49.0231C82.2325 41.1626 75.8602 34.7905 68 34.7905Z" fill="#989898"/>
<path fill-rule="evenodd" clip-rule="evenodd" d="M0 68C0 30.4446 30.4446 0 68 0C105.556 0 136 30.4446 136 68C136 105.556 105.556 136 68 136C30.4446 136 0 105.556 0 68ZM68 9.48837C35.6849 9.48837 9.48837 35.6849 9.48837 68C9.48837 84.1024 15.9928 98.6854 26.5175 109.265C27.6586 103.11 29.9006 97.3058 34.4009 92.6388C41.1322 85.6579 51.8961 82.2326 68 82.2326C84.103 82.2326 94.8673 85.6579 101.598 92.6388C106.099 97.3058 108.341 103.11 109.482 109.266C120.007 98.686 126.512 84.1024 126.512 68C126.512 35.6849 100.315 9.48837 68 9.48837ZM100.853 116.425C100.209 108.759 98.5437 103.141 94.7686 99.225C90.6601 94.9647 83.0479 91.7209 68 91.7209C52.9514 91.7209 45.3393 94.9647 41.2311 99.225C37.4555 103.141 35.7908 108.758 35.1463 116.424C44.5121 122.791 55.8214 126.512 68 126.512C80.178 126.512 91.4875 122.791 100.853 116.425Z" fill="#989898"/>
</svg>
