<svg width="19" height="19" viewBox="0 0 19 19" fill="none" xmlns="http://www.w3.org/2000/svg">
<path d="M17.4166 7.91671V10.2917C17.4166 13.4584 15.8333 15.0417 12.6666 15.0417H12.2708C12.0253 15.0417 11.7878 15.1605 11.6374 15.3584L10.4499 16.9417C9.92742 17.6384 9.07242 17.6384 8.54992 16.9417L7.36242 15.3584C7.23575 15.1842 6.94284 15.0417 6.72909 15.0417H6.33325C3.16659 15.0417 1.58325 14.25 1.58325 10.2917V6.33337C1.58325 3.16671 3.16659 1.58337 6.33325 1.58337H11.0833" stroke="#FF0000" stroke-width="1.5" stroke-miterlimit="10" stroke-linecap="round" stroke-linejoin="round"/>
<path d="M15.4374 5.54171C16.5305 5.54171 17.4166 4.6556 17.4166 3.56254C17.4166 2.46948 16.5305 1.58337 15.4374 1.58337C14.3444 1.58337 13.4583 2.46948 13.4583 3.56254C13.4583 4.6556 14.3444 5.54171 15.4374 5.54171Z" stroke="#FF0000" stroke-width="1.5" stroke-linecap="round" stroke-linejoin="round"/>
<path d="M12.6639 8.70833H12.6711" stroke="#FF0000" stroke-width="2" stroke-linecap="round" stroke-linejoin="round"/>
<path d="M9.49647 8.70833H9.50358" stroke="#FF0000" stroke-width="2" stroke-linecap="round" stroke-linejoin="round"/>
<path d="M6.32898 8.70833H6.3361" stroke="#FF0000" stroke-width="2" stroke-linecap="round" stroke-linejoin="round"/>
</svg>
